Vivian Schmitt: Heisse Nächte -- Vivian Schmitt: Hot Nights

Director:
Nolan Elson

Actresses:
Vivian Schmitt
Cleo van Eden
Stella Styles
Julie Star
Celina Davis
Lucie

Actors:
Markus Waxenegger
Ludwig Lust
Reinhard
Jean Pallett

Description:
(Translation by Google) Vivian and her friends have heard of a club in Hamburg. Girls there for the new show program will be sought. An opportunity that they do not want to miss. As simple as they had imagined, it is not. In order to convince the chief of establishments of their benefits, their whole girl power is required.

Specs:
Video: 576x320 pixels, 938.92 kbit/s, Xvid
Audio: 48 kHz, 126.48 kbit/s, MPEG3

Duration:
01:28:29

Language:
German

   General
      Format : AVI
      Format/Info : Audio Video Interleave
      File size : 699 MiB
      Duration : 1h 28mn
      Overall bit rate mode : Variable
      Overall bit rate : 1 104 Kbps
      Writing application : VirtualDubMod 1.5.10.2 (build 2540/release)
      Writing library : VirtualDubMod build 2540/release
   Video #0
      ID : 0
      Format : MPEG-4 Visual
      Format profile : Advanced Simple@L5
      Format settings, BVOP : 2
      Format settings, QPel : No
      Format settings, GMC : No warppoints
      Format settings, Matrix : Default (H.263)
      Codec ID : XVID
      Codec ID/Hint : XviD
      Duration : 1h 28mn
      Bit rate : 961 Kbps
      Width : 576 pixels
      Height : 320 pixels
      Display aspect ratio : 16:9
      Frame rate : 25.000 fps
      Color space : YUV
      Chroma subsampling : 4:2:0
      Bit depth : 8 bits
      Scan type : Progressive
      Compression mode : Lossy
      Bits/(Pixel*Frame) : 0.209
      Stream size : 608 MiB (87%)
      Writing library : XviD 64
   Audio #1
      ID : 1
      Format : MPEG Audio
      Format version : Version 1
      Format profile : Layer 3
      Mode : Joint stereo
      Codec ID : 55
      Codec ID/Hint : MP3
      Duration : 1h 28mn
      Bit rate mode : Variable
      Bit rate : 128 Kbps
      Channel(s) : 2 channels
      Sampling rate : 48.0 KHz
      Compression mode : Lossy
      Stream size : 82.0 MiB (12%)
      Alignment : Aligned on interleaves
      Interleave, duration : 24 ms (0.60 video frame)
      Interleave, preload duration : 513 ms
      Writing library : LAME3.90.
      Encoding settings : -m j -V 4 -q 2 -lowpass 17.6 --abr 128




GePi
@@2012@@
#NoOne left
#Greetz all riperz
#Greetz all HD2DVD makerz
#Greetz all P2P groups

....and don't forget to kiss the bride!

screens here: http://bayimg.com/GaGiIAaej